# xmcd
#
# Track frame offsets:
#	150
#	9172
#	21065
#	34102
#	47287
#	57007
#	68885
#	79282
#	91160
#	102472
#	115177
#	124185
#	133715
#	148725
#	159372
#	169647
#	181410
#	194362
#	208575
#	221257
#	233455
#	245967
#	255865
#
# Disc length: 3538 seconds
#
# Revision: 3
# Processed by: cddbd v1.5.2PL0 Copyright (c) Steve Scherf et al.
# Submitted via: dBpowerAMP V4.0
#
DISCID=2e0dd017
DTITLE=Various Artist - Country Songs That Will Live Forever disc 3
DYEAR=1993
DGENRE=Country
TTITLE0=Patsy Cline - Anytime
TTITLE1=Eddy Arnold - I Love You so Much it Hurts
TTITLE2=Jim Reeves - Have I Told You Lately That I Love You
TTITLE3=Ernest Tubb - Slipping Around
TTITLE4=Jimmy C Newman - Sioux City Sue
TTITLE5=Don Gibson - One Has my Name The Other has My Heart
TTITLE6=Elton Britt, The Skytoppers - Candy Kisses
TTITLE7=Eddy Arnold, The Tennessee Ploughboys - Bouquet of Roses
TTITLE8=Patti Page - Walking the Floor Over You
TTITLE9=Ernest Tubb, The Andrew Sisters, The Texas Troubadours - Don't Rob Another Man's Castle
TTITLE10=Jerry Lee Lewis - Jambalaya (on The Bayou)
TTITLE11=Linda Ronstadt - Lovesick Blues
TTITLE12=Glen Campbell - Your Cheatin' Heart
TTITLE13=Willie Nelson - Heartaches by the Number
TTITLE14=Leroy Van Dyke - Young Love
TTITLE15=Charlie Walker - Pick Me up on Your Way Down
TTITLE16=Tennessee Ernie Ford, Lou Busch, The Starlighters - Cincinnati Dancing Pig
TTITLE17=Ronnie Milsap, The Jordanaires - Four Walls
TTITLE18=Glen Campbell - Bonaparte's Retreat
TTITLE19=Elvis Presley, The Imperials Quartet - I Rally Don't Want to Know
TTITLE20=Linda Ronstadt - I Can't Help it (if I'm Still in Love With You)
TTITLE21=Hank Williams Jr - I Walk the Line
TTITLE22=Jerry Lee Lewis - Singing the Blues
EXTD=corrections and additions
EXTT0=
EXTT1=
EXTT2=
EXTT3=
EXTT4=
EXTT5=
EXTT6=
EXTT7=
EXTT8=
EXTT9=
EXTT10=
EXTT11=
EXTT12=
EXTT13=
EXTT14=
EXTT15=
EXTT16=
EXTT17=
EXTT18=
EXTT19=
EXTT20=
EXTT21=
EXTT22=
PLAYORDER=
